# xmcd
#
# Track frame offsets:
# 150
# 14287
# 30070
# 40027
# 54535
# 61317
# 71352
# 84120
# 94867
# 106532
# 118807
# 128777
# 142560
# 153437
#
# Disc length: 2162 seconds
#
# Revision: 0
# Processed by: cddbd v1.5.2PL0 Copyright (c) Steve Scherf et al.
# Submitted via: Audion 3.0.2 (http://www.panic.com/audion/)
#
DISCID=9a08700e
DTITLE=Big Red Goad - Truck Drivin' Psycho
DYEAR=1900
DGENRE=
TTITLE0=A Tiger in My Tank
TTITLE1=Diesel Smoke, Dangerous Curves
TTITLE2=Thunder on the Road!
TTITLE3=A Tombstone Every Mile
TTITLE4=Payload Daddy
TTITLE5=I Got Lost
TTITLE6=My Bucket's Got a Hole In It
TTITLE7=Movin' On
TTITLE8=Understand Your Man
TTITLE9=Big Rig Rollin' Man
TTITLE10=Truck-Drivin' Son of a Gun
TTITLE11=Freightliner Fever
TTITLE12=Jackknife
TTITLE13=Poor White Trash
EXTD=
EXTT0=
EXTT1=
EXTT2=
EXTT3=
EXTT4=
EXTT5=
EXTT6=
EXTT7=
EXTT8=
EXTT9=
EXTT10=
EXTT11=
EXTT12=
EXTT13=
PLAYORDER=
